<?xml version="1.0" encoding="UTF-8"?>
<!DOCTYPE svg PUBLIC "-//W3C//DTD SVG 1.1//EN" "http://www.w3.org/Graphics/SVG/1.1/DTD/svg11.dtd">
<!-- Creator: CorelDRAW 2020 (64-Bit Evaluation Version) -->
<svg xmlns="http://www.w3.org/2000/svg" xml:space="preserve" width="110mm" height="25mm" version="1.1" style="shape-rendering:geometricPrecision; text-rendering:geometricPrecision; image-rendering:optimizeQuality; fill-rule:evenodd; clip-rule:evenodd"
viewBox="0 0 11000 2500"
 xmlns:xlink="http://www.w3.org/1999/xlink"
 xmlns:xodm="http://www.corel.com/coreldraw/odm/2003">
 <defs>
  <style type="text/css">
   <![CDATA[
    .fil1 {fill:#2B2A29;fill-rule:nonzero}
    .fil0 {fill:#14519E;fill-rule:nonzero}
    .fil2 {fill:url(#id0)}
   ]]>
  </style>
  <linearGradient id="id0" gradientUnits="userSpaceOnUse" x1="271.09" y1="1253.08" x2="2265.43" y2="1253.08">
   <stop offset="0" style="stop-opacity:1; stop-color:#393185"/>
   <stop offset="1" style="stop-opacity:1; stop-color:#00A0E3"/>
  </linearGradient>
 </defs>
 <g id="Layer_x0020_1">
  <metadata id="CorelCorpID_0Corel-Layer"/>
  <g id="_2384628433280">
   <path class="fil0" d="M3053.62 1594.49c153.46,0 263.52,-93.14 263.52,-223.31 0,-131.23 -93.13,-198.97 -207.43,-230.72l-53.97 -14.81c-61.39,-16.94 -83.61,-39.16 -83.61,-83.61 0,-41.28 30.69,-78.32 86.78,-78.32 53.98,0 96.31,26.46 130.18,78.32l99.48 -74.08c-48.68,-74.09 -127,-122.77 -225.43,-122.77 -155.57,0 -239.18,91.02 -239.18,204.26 0,118.53 77.26,182.03 182.03,209.55l53.98 14.81c80.43,22.23 109.01,57.15 109.01,106.89 0,50.8 -40.22,95.25 -112.19,95.25 -94.19,0 -147.1,-53.97 -185.2,-120.65l-98.43 75.15c51.86,85.72 136.53,164.04 280.46,164.04z"/>
   <path id="1" class="fil0" d="M3442.02 1579.67l249.77 0c221.19,0 348.19,-134.41 348.19,-359.83 0,-225.43 -127,-359.83 -348.19,-359.83l-249.77 0 0 719.66zm243.42 -603.25c140.76,0 206.37,91.02 206.37,243.42 0,152.4 -65.61,243.41 -206.37,243.41l-100.54 0 0 -486.83 100.54 0z"/>
   <polygon id="2" class="fil0" points="4497.17,1579.67 4640.04,1579.67 4640.04,975.36 4835.83,975.36 4835.83,860.01 4301.38,860.01 4301.38,975.36 4497.17,975.36 "/>
   <path id="3" class="fil0" d="M5163.92 1594.49c96.3,0 170.39,-35.99 231.77,-117.48l-86.78 -71.96c-29.64,47.62 -71.97,76.2 -134.41,76.2 -83.61,0 -129.12,-55.04 -139.7,-135.47l369.36 0c2.11,-15.88 4.23,-39.16 4.23,-56.09 0,-155.58 -103.72,-267.76 -248.71,-267.76 -139.7,0 -262.46,104.77 -262.46,287.87 0,173.56 110.06,284.69 266.7,284.69zm-4.24 -463.55c62.44,0 105.84,38.1 114.3,119.59l-237.06 0c13.75,-79.38 57.15,-119.59 122.76,-119.59z"/>
   <path id="4" class="fil0" d="M5485.64 1307.68c0,174.62 101.6,286.81 266.7,286.81 92.08,0 180.98,-48.69 218.02,-149.23l-105.83 -49.74c-19.05,49.74 -59.27,83.61 -112.19,83.61 -84.66,0 -124.88,-71.97 -124.88,-171.45 0,-99.48 40.22,-171.45 124.88,-171.45 52.92,0 93.14,33.87 112.19,83.61l105.83 -49.74c-37.04,-100.55 -125.94,-149.23 -218.02,-149.23 -165.1,0 -266.7,112.18 -266.7,286.81z"/>
   <path id="5" class="fil0" d="M6073.02 1579.67l139.7 0 0 -363.01c19.05,-44.45 55.03,-79.37 105.83,-79.37 58.21,0 99.48,40.21 99.48,117.47l0 324.91 139.7 0 0 -342.9c0,-127 -58.21,-214.84 -194.73,-214.84 -66.68,0 -116.42,28.58 -150.28,67.73l0 -261.4 -139.7 0 0 751.41z"/>
   <path id="6" class="fil0" d="M6696.38 1579.67l139.7 0 0 -363.01c19.05,-44.45 55.03,-79.37 105.83,-79.37 58.21,0 99.48,40.21 99.48,117.47l0 324.91 139.7 0 0 -342.9c0,-127 -58.21,-214.84 -194.73,-214.84 -69.85,0 -121.71,31.75 -155.58,74.08l0 -59.26 -134.4 0 0 542.92z"/>
   <path id="7" class="fil0" d="M7557.86 1479.13c-86.78,0 -128.06,-73.03 -128.06,-171.45 0,-98.43 41.28,-170.39 128.06,-170.39 86.78,0 128.06,71.96 128.06,170.39 0,98.42 -41.28,171.45 -128.06,171.45zm0 -457.2c-165.1,0 -269.87,119.59 -269.87,285.75 0,167.22 104.77,286.81 269.87,286.81 165.1,0 269.87,-119.59 269.87,-286.81 0,-166.16 -104.77,-285.75 -269.87,-285.75z"/>
   <polygon id="8" class="fil0" points="7939.92,1579.67 8079.62,1579.67 8079.62,828.26 7939.92,828.26 "/>
   <path id="9" class="fil0" d="M8461.67 1479.13c-86.78,0 -128.06,-73.03 -128.06,-171.45 0,-98.43 41.28,-170.39 128.06,-170.39 86.78,0 128.06,71.96 128.06,170.39 0,98.42 -41.28,171.45 -128.06,171.45zm0 -457.2c-165.1,0 -269.87,119.59 -269.87,285.75 0,167.22 104.77,286.81 269.87,286.81 165.1,0 269.87,-119.59 269.87,-286.81 0,-166.16 -104.77,-285.75 -269.87,-285.75z"/>
   <path id="10" class="fil0" d="M9039.52 1542.63c60.32,0 111.12,-28.58 146.05,-70.91l0 49.74c0,104.78 -70.91,144.99 -133.35,144.99 -67.74,0 -101.6,-31.75 -132.29,-80.43l-95.25 62.44c34.92,70.91 105.83,129.12 231.77,129.12 138.64,0 268.82,-85.73 268.82,-265.64l0 -475.19 -134.41 0 0 64.55c-34.93,-47.62 -87.84,-79.37 -151.34,-79.37 -129.12,0 -226.49,97.37 -226.49,260.35 0,162.98 97.37,260.35 226.49,260.35zm30.69 -115.36c-66.68,0 -118.53,-45.51 -118.53,-144.99 0,-99.48 51.85,-144.99 118.53,-144.99 46.57,0 93.13,29.63 115.36,80.43l0 130.18c-22.23,50.8 -68.79,79.37 -115.36,79.37z"/>
   <path id="11" class="fil0" d="M9468.14 1579.67l139.7 0 0 -542.92 -139.7 0 0 542.92zm-6.35 -631.82l152.4 0 0 -133.35 -152.4 0 0 133.35z"/>
   <path id="12" class="fil0" d="M9986.72 1594.49c96.3,0 170.39,-35.99 231.77,-117.48l-86.78 -71.96c-29.64,47.62 -71.97,76.2 -134.41,76.2 -83.61,0 -129.12,-55.04 -139.7,-135.47l369.36 0c2.11,-15.88 4.23,-39.16 4.23,-56.09 0,-155.58 -103.72,-267.76 -248.71,-267.76 -139.7,0 -262.46,104.77 -262.46,287.87 0,173.56 110.06,284.69 266.7,284.69zm-4.24 -463.55c62.44,0 105.84,38.1 114.3,119.59l-237.06 0c13.75,-79.38 57.15,-119.59 122.76,-119.59z"/>
   <path id="13" class="fil0" d="M10698.97 1110.83c-37.04,-50.8 -95.25,-88.9 -177.8,-88.9 -125.94,0 -195.79,78.32 -195.79,168.27 0,89.96 50.8,143.94 143.93,165.1l41.28 9.53c53.97,12.7 75.14,28.57 75.14,63.5 0,34.92 -31.75,57.15 -75.14,57.15 -55.04,0 -100.55,-24.34 -137.59,-81.49l-83.61 78.31c48.69,68.8 121.71,112.19 215.9,112.19 133.35,0 216.96,-79.38 216.96,-174.63 0,-99.48 -55.03,-149.22 -169.33,-175.68l-40.22 -9.53c-38.1,-9.52 -50.8,-26.45 -50.8,-52.91 0,-28.58 24.34,-50.8 57.15,-50.8 39.16,0 66.68,20.11 94.19,53.97l85.73 -74.08z"/>
   <path class="fil1" d="M3442.6 1976.12l73.98 0c55.88,0 98.11,-38.42 98.11,-107.95 0,-69.53 -42.23,-107.95 -98.11,-107.95l-73.98 0 0 215.9zm72.07 -193.36c43.82,0 72.71,29.21 72.71,85.41 0,56.2 -28.89,85.41 -72.71,85.41l-45.72 0 0 -170.82 45.72 0z"/>
   <path id="1" class="fil1" d="M3721.05 1979.61c31.12,0 51.44,-13.65 63.19,-31.43l-17.15 -14.29c-9.21,14.92 -25.08,23.18 -44.45,23.18 -27.94,0 -45.08,-19.05 -47.31,-51.75l112.4 0c0.63,-3.81 0.95,-8.26 0.95,-12.39 0,-44.76 -26.35,-77.78 -68.58,-77.78 -43.18,0 -71.44,32.06 -71.44,82.23 0,50.48 27.63,82.23 72.39,82.23zm-0.95 -141.92c23.81,0 40.32,17.78 41.91,46.04l-86.36 0c3.81,-29.53 20.32,-46.04 44.45,-46.04z"/>
   <path id="2" class="fil1" d="M3867.1 1976.12l24.77 0 59.69 -157.48 -26.99 0 -36.19 101.6c-4.45,12.38 -8.26,24.76 -8.26,29.53l-0.95 0c0,-4.77 -4.13,-17.15 -8.57,-29.53l-36.2 -101.6 -26.99 0 59.69 157.48z"/>
   <path id="3" class="fil1" d="M4044.27 1979.61c31.12,0 51.44,-13.65 63.19,-31.43l-17.15 -14.29c-9.21,14.92 -25.08,23.18 -44.45,23.18 -27.94,0 -45.08,-19.05 -47.31,-51.75l112.4 0c0.63,-3.81 0.95,-8.26 0.95,-12.39 0,-44.76 -26.35,-77.78 -68.58,-77.78 -43.18,0 -71.44,32.06 -71.44,82.23 0,50.48 27.63,82.23 72.39,82.23zm-0.95 -141.92c23.81,0 40.32,17.78 41.91,46.04l-86.36 0c3.81,-29.53 20.32,-46.04 44.45,-46.04z"/>
   <polygon id="4" class="fil1" points="4152.55,1750.69 4152.55,1976.12 4177.95,1976.12 4177.95,1750.69 "/>
   <path id="5" class="fil1" d="M4294.15 1957.07c-29.21,0 -47.94,-22.23 -47.94,-59.69 0,-37.47 18.73,-59.69 47.94,-59.69 29.21,0 47.94,22.22 47.94,59.69 0,37.46 -18.73,59.69 -47.94,59.69zm0 -141.92c-45.08,0 -74.29,33.65 -74.29,82.23 0,48.58 29.21,82.23 74.29,82.23 45.09,0 74.3,-33.65 74.3,-82.23 0,-48.58 -29.21,-82.23 -74.3,-82.23z"/>
   <path id="6" class="fil1" d="M4410.36 2035.81l25.4 0 0 -80.65c11.43,14.93 29.52,24.45 49.21,24.45 41.91,0 68.58,-33.65 68.58,-82.23 0,-48.58 -26.67,-82.23 -68.58,-82.23 -20.32,0 -38.74,10.16 -50.17,26.03l0 -22.54 -24.44 0 0 217.17zm69.21 -78.74c-19.68,0 -36.51,-11.43 -43.81,-28.26l0 -62.55c7.3,-16.82 24.13,-28.57 43.81,-28.57 29.85,0 47.63,22.54 47.63,59.69 0,37.15 -17.78,59.69 -47.63,59.69z"/>
   <path id="7" class="fil1" d="M4595.78 1818.64l0 157.48 25.4 0 0 -157.48 -25.4 0zm-3.18 -67.95l0 31.75 31.75 0 0 -31.75 -31.75 0z"/>
   <path id="8" class="fil1" d="M4673.25 1976.12l25.4 0 0 -110.17c4.44,-14.93 19.36,-28.26 40.64,-28.26 24.13,0 38.1,14.6 38.1,42.86l0 95.57 25.4 0 0 -98.11c0,-39.37 -20.64,-62.86 -57.15,-62.86 -21.91,0 -39.69,12.7 -47.95,25.08l0 -21.59 -24.44 0 0 157.48z"/>
   <path id="9" class="fil1" d="M4908.52 1970.09c19.68,0 37.15,-9.21 48.58,-24.13l0 17.46c0,28.89 -13.02,53.34 -46.68,53.34 -21.59,0 -36.83,-11.75 -44.45,-28.57l-19.05 12.06c9.53,20.96 30.8,39.05 64.46,39.05 48.89,0 71.12,-36.19 71.12,-76.83l0 -143.83 -24.45 0 0 21.91c-11.43,-15.56 -29.53,-25.4 -49.53,-25.4 -39.69,0 -65.41,32.38 -65.41,77.47 0,45.08 25.72,77.47 65.41,77.47zm5.71 -22.55c-27.94,0 -44.76,-21.27 -44.76,-54.92 0,-33.66 16.82,-54.93 44.76,-54.93 19.37,0 35.56,11.43 42.87,27.62l0 54.93c-7.31,16.19 -23.5,27.3 -42.87,27.3z"/>
   <polygon id="10" class="fil1" points="5149.82,1976.12 5176.18,1976.12 5176.18,1879.92 5250.15,1761.17 5250.15,1760.22 5219.36,1760.22 5163.16,1857.69 5106.96,1760.22 5076.16,1760.22 5076.16,1761.17 5149.82,1879.28 "/>
   <path id="11" class="fil1" d="M5320.96 1957.07c-29.21,0 -47.94,-22.23 -47.94,-59.69 0,-37.47 18.73,-59.69 47.94,-59.69 29.21,0 47.94,22.22 47.94,59.69 0,37.46 -18.73,59.69 -47.94,59.69zm0 -141.92c-45.08,0 -74.29,33.65 -74.29,82.23 0,48.58 29.21,82.23 74.29,82.23 45.09,0 74.3,-33.65 74.3,-82.23 0,-48.58 -29.21,-82.23 -74.3,-82.23z"/>
   <path id="12" class="fil1" d="M5564.8 1818.64l-25.4 0 0 110.17c-4.76,14.92 -19.37,28.26 -40.64,28.26 -24.13,0 -38.1,-14.61 -38.1,-42.86l0 -95.57 -25.4 0 0 98.11c0,39.37 20.64,62.86 57.15,62.86 21.91,0 39.37,-12.38 47.94,-24.76l0 21.27 24.45 0 0 -157.48z"/>
   <path id="13" class="fil1" d="M5616.88 1976.12l25.4 0 0 -99.38c7.62,-23.81 22.86,-35.24 43.81,-35.24l8.57 0 0 -25.72c-2.22,-0.63 -4.44,-0.63 -6.66,-0.63 -22.55,0 -38.1,14.28 -46.68,31.75l0 -28.26 -24.44 0 0 157.48z"/>
   <polygon id="14" class="fil1" points="5801.02,1976.12 5827.37,1976.12 5827.37,1760.22 5801.02,1760.22 "/>
   <path id="15" class="fil1" d="M5885.16 1976.12l25.4 0 0 -110.17c4.44,-14.93 19.36,-28.26 40.64,-28.26 22.86,0 35.87,14.29 35.87,42.23l0 96.2 25.4 0 0 -110.17c4.45,-14.93 19.37,-28.26 40.64,-28.26 22.86,0 35.88,14.29 35.88,42.23l0 96.2 25.4 0 0 -98.74c0,-39.06 -20.32,-62.23 -56.51,-62.23 -24.77,0 -44.45,14.6 -52.07,27.94 -8.58,-18.1 -25.09,-27.94 -48.26,-27.94 -21.91,0 -39.69,12.7 -47.95,25.08l0 -21.59 -24.44 0 0 157.48z"/>
   <path id="16" class="fil1" d="M6210.59 1979.61c16.83,0 33.02,-6.35 44.77,-19.05l0 15.56 24.45 0 0 -99.38c0,-36.51 -21.91,-61.59 -63.18,-61.59 -27.63,0 -43.5,11.74 -54.93,23.81l14.6 16.51c11.43,-11.11 20.96,-17.78 39.69,-17.78 26.04,0 38.42,18.1 38.42,40.96l0 15.87c-11.43,-12.06 -27.31,-18.41 -43.82,-18.41 -35.56,0 -58.1,23.17 -58.1,51.75 0,28.57 22.54,51.75 58.1,51.75zm3.5 -21.27c-25.72,0 -35.88,-16.19 -35.88,-30.48 0,-14.29 10.16,-30.48 35.88,-30.48 14.28,0 32.06,5.71 40.32,19.68l0 21.59c-8.26,14.29 -26.04,19.69 -40.32,19.69z"/>
   <path id="17" class="fil1" d="M6385.54 1970.09c19.68,0 37.15,-9.21 48.58,-24.13l0 17.46c0,28.89 -13.02,53.34 -46.68,53.34 -21.59,0 -36.83,-11.75 -44.45,-28.57l-19.05 12.06c9.53,20.96 30.8,39.05 64.46,39.05 48.89,0 71.12,-36.19 71.12,-76.83l0 -143.83 -24.45 0 0 21.91c-11.43,-15.56 -29.53,-25.4 -49.53,-25.4 -39.69,0 -65.41,32.38 -65.41,77.47 0,45.08 25.72,77.47 65.41,77.47zm5.71 -22.55c-27.94,0 -44.76,-21.27 -44.76,-54.92 0,-33.66 16.82,-54.93 44.76,-54.93 19.37,0 35.56,11.43 42.87,27.62l0 54.93c-7.31,16.19 -23.5,27.3 -42.87,27.3z"/>
   <path id="18" class="fil1" d="M6511.59 1818.64l0 157.48 25.4 0 0 -157.48 -25.4 0zm-3.18 -67.95l0 31.75 31.75 0 0 -31.75 -31.75 0z"/>
   <path id="19" class="fil1" d="M6589.06 1976.12l25.4 0 0 -110.17c4.44,-14.93 19.36,-28.26 40.64,-28.26 24.13,0 38.1,14.6 38.1,42.86l0 95.57 25.4 0 0 -98.11c0,-39.37 -20.64,-62.86 -57.15,-62.86 -21.91,0 -39.69,12.7 -47.95,25.08l0 -21.59 -24.44 0 0 157.48z"/>
   <path id="20" class="fil1" d="M6814.8 1979.61c16.83,0 33.02,-6.35 44.77,-19.05l0 15.56 24.45 0 0 -99.38c0,-36.51 -21.91,-61.59 -63.18,-61.59 -27.63,0 -43.5,11.74 -54.93,23.81l14.6 16.51c11.43,-11.11 20.96,-17.78 39.69,-17.78 26.04,0 38.42,18.1 38.42,40.96l0 15.87c-11.43,-12.06 -27.31,-18.41 -43.82,-18.41 -35.56,0 -58.1,23.17 -58.1,51.75 0,28.57 22.54,51.75 58.1,51.75zm3.5 -21.27c-25.72,0 -35.88,-16.19 -35.88,-30.48 0,-14.29 10.16,-30.48 35.88,-30.48 14.28,0 32.06,5.71 40.32,19.68l0 21.59c-8.26,14.29 -26.04,19.69 -40.32,19.69z"/>
   <path id="21" class="fil1" d="M6992.29 1977.39c4.13,0 8.26,-0.32 11.43,-0.95l0 -21.59 -4.44 0c-21.28,0 -30.8,-7.31 -30.8,-28.9l0 -85.72 35.24 0 0 -21.59 -35.24 0 0 -40.96 -25.08 0 0 40.96 -28.58 0 0 21.59 28.26 0 0 85.72c0,35.56 16.83,51.44 49.21,51.44z"/>
   <path id="22" class="fil1" d="M7042.14 1818.64l0 157.48 25.4 0 0 -157.48 -25.4 0zm-3.18 -67.95l0 31.75 31.75 0 0 -31.75 -31.75 0z"/>
   <path id="23" class="fil1" d="M7183.74 1957.07c-29.21,0 -47.94,-22.23 -47.94,-59.69 0,-37.47 18.73,-59.69 47.94,-59.69 29.21,0 47.94,22.22 47.94,59.69 0,37.46 -18.73,59.69 -47.94,59.69zm0 -141.92c-45.08,0 -74.29,33.65 -74.29,82.23 0,48.58 29.21,82.23 74.29,82.23 45.09,0 74.3,-33.65 74.3,-82.23 0,-48.58 -29.21,-82.23 -74.3,-82.23z"/>
   <path id="24" class="fil1" d="M7299.95 1976.12l25.4 0 0 -110.17c4.44,-14.93 19.36,-28.26 40.64,-28.26 24.13,0 38.1,14.6 38.1,42.86l0 95.57 25.4 0 0 -98.11c0,-39.37 -20.64,-62.86 -57.15,-62.86 -21.91,0 -39.69,12.7 -47.95,25.08l0 -21.59 -24.44 0 0 157.48z"/>
   <path id="25" class="fil1" d="M7576.18 1840.86c-10.48,-15.55 -27.94,-25.71 -49.85,-25.71 -32.39,0 -50.48,21.59 -50.48,45.72 0,22.86 13.97,37.46 38.73,42.86l13.34 2.86c17.46,3.81 29.21,10.79 29.21,25.4 0,15.87 -13.02,26.03 -33.02,26.03 -19.69,0 -34.29,-12.38 -43.5,-26.35l-16.51 15.24c11.43,17.14 31.75,32.7 59.37,32.7 37.47,0 59.37,-23.81 59.37,-49.21 0,-27.62 -17.78,-41.28 -47.62,-47.63l-13.34 -2.85c-13.01,-2.86 -20.32,-9.85 -20.32,-21.59 0,-11.43 8.26,-21.59 23.82,-21.59 13.33,0 25.08,5.39 34.29,18.41l16.51 -14.29z"/>
   <path class="fil2" d="M923.02 563.73c-31.28,138.64 -9.77,386 118.53,413.25 76.62,16.28 153.67,-33.06 215.56,-55.25 113.4,-40.66 109,-26.24 169.27,47.69 69.61,85.37 171.37,187.28 308.54,239.28 142.93,54.19 356.11,46.32 409.64,-81.4 32.51,-77.58 -29.15,-151.47 -116.3,-104.17 -220.63,119.74 -396,-86.21 -512.08,-240.71 -123.16,-163.92 -278.88,-5.13 -400.55,-14.24 -24.64,-66.82 -29.38,-147.25 -15.43,-222.22 22.49,-120.83 111.55,-208.86 229.51,-238.18 42.11,-10.46 93.66,-9.99 206.17,-7.38 -224.26,-119.85 -552.34,-4.88 -612.86,263.33zm1089.19 1359.53c-159.28,96.92 -252.62,142.6 -451.59,126.5 -105.73,-8.55 -174.66,-30.85 -267.59,-60.42 27.1,-89.22 154.11,-248.27 42.04,-344.34 -159.62,-136.87 -210.84,-142.31 -373.4,-332.43 -104.99,-113.51 -158.08,-297.99 -194.27,-396.61 -18.95,-51.63 -20.06,-73.25 -78.06,-70.28 -113.84,5.83 -70.31,172.13 -41.04,257.12 43.29,125.69 142.48,291.18 220.83,387.56 61.31,75.44 313.88,269.75 317.37,282.37 -21.53,175.82 -259.4,271.04 148.9,358.89 234.6,50.47 533.29,3.44 676.81,-208.36zm213.19 -374.88c-54.46,33.77 -83.5,107.7 -167.46,158.82 -55.73,33.97 -199.12,69.28 -209.37,122.8 -8.7,45.5 14.85,65.34 57.97,61.09 52.64,-5.19 116.43,-41.45 164.27,-82.28 75.53,-64.48 130.47,-165.22 154.59,-260.43zm-1797.48 -324.85c-30.77,59.88 7.36,115.43 67.26,103.52 56.9,-11.31 74.88,-98.6 9.45,-126.95 -39,-16.91 -65.76,2.12 -76.71,23.43zm1798.44 -253.17c-10.1,51.85 13.17,130.19 -0.49,203.3 -27.73,148.28 -143.55,238.83 -289.35,257.85 -245.85,32.05 -398.62,-156.63 -496.49,-135.81 -102.52,21.81 -96.51,132.62 -21.89,180.96 257.63,166.88 621.68,202.44 773.45,-20.92 109.21,-160.72 76.12,-308.22 34.77,-485.38zm-520.98 900.96c59.39,-112.05 -127.23,-144 -170.25,-49.65 -55.84,122.48 138.28,109.96 170.25,49.65zm230.36 -1287.9c212.58,191.38 90.78,349.87 232.96,375.84 21.1,-187.07 -213.3,-452.68 -363.54,-528.49 -91.97,-44.09 -193.1,-94.59 -326.01,-75.77 -236.99,33.56 -241.34,341.71 -51,251.74 48.04,-22.71 39.68,-51.52 71.79,-99.3 41.75,-62.1 86.29,-70.14 134.16,-65.61 140.67,13.35 195.27,45.82 301.64,141.59zm-810.19 617.34c31.26,109.26 251.41,111.73 200.17,-42.86 -45.44,-137.08 -242.05,-103.49 -200.17,42.86zm-94.08 -906.57c-95.2,1.96 -223.06,73.09 -275.35,126.77 -34.94,35.86 -172.29,198.2 -119.41,256.06 20.11,22 95.78,41.48 122.51,-58.1 37.24,-138.74 130.66,-302.14 272.25,-324.73zm-423.56 217.3c-71.6,62.89 -132.93,116.47 -179.36,226.79 -20.88,49.6 -89.37,300.37 -34.88,353.31 53.87,52.34 91.53,-30.93 87.53,-96.97 -11.79,-194.25 5.81,-328.97 126.71,-483.13zm1320.75 224.07c-32.27,-122.6 -177.73,-187.88 -230.62,-127.23 -62.31,71.44 56.93,259.16 195.93,232.25 54.69,-10.58 47.32,-57.07 34.69,-105.02zm-1498.29 992.63c-37.23,91.16 313.86,459.7 703.84,508.11 87.88,10.91 289.55,39.66 370.86,-18.65 -410.89,4.16 -724.12,-171.08 -955.48,-468.66 -28.78,-37.02 -95.49,-78.91 -119.22,-20.8zm-113.57 -759.64c-58.57,102.36 -53.42,301.81 -25.91,430.61 61.92,289.9 112.19,173.21 270.29,182.4 45,63.01 285.11,394.4 394.25,329.8 108.7,-64.33 -78.77,-154.84 -197,-298.23 -25.95,-31.46 -96.84,-138.97 -124.64,-155.25 -91.84,-53.78 -147.04,18.1 -234.69,3.99 -92.44,-135.9 -90.68,-298.98 -82.3,-493.32z"/>
  </g>
 </g>
</svg>
